<svg id="Capa_1" enable-background="new 0 0 497 497" height="512" viewBox="0 0 497 497" width="512" xmlns="http://www.w3.org/2000/svg"><g><g fill="#6bd9e7"><path d="m393.366 103.634c-2.929-2.929-2.929-7.678 0-10.607 2.929-2.929 7.678-2.929 10.607 0 2.929 2.929 2.929 7.678 0 10.607-2.93 2.929-7.678 2.929-10.607 0z"/><path d="m93.028 403.972c-2.929-2.929-2.929-7.678 0-10.607 2.929-2.929 7.678-2.929 10.607 0 2.929 2.929 2.929 7.678 0 10.607-2.93 2.929-7.678 2.929-10.607 0z"/><path d="m103.634 103.634c-2.929 2.929-7.678 2.929-10.607 0-2.929-2.929-2.929-7.678 0-10.607 2.929-2.929 7.678-2.929 10.607 0 2.929 2.93 2.929 7.678 0 10.607z"/><path d="m403.972 403.972c-2.929 2.929-7.678 2.929-10.607 0-2.929-2.929-2.929-7.678 0-10.607 2.929-2.929 7.678-2.929 10.607 0 2.929 2.93 2.929 7.678 0 10.607z"/><path d="m253.803 253.803c-2.929 2.929-7.678 2.929-10.607 0-2.929-2.929-2.929-7.678 0-10.607 2.929-2.929 7.678-2.929 10.607 0 2.929 2.93 2.929 7.678 0 10.607z"/><path d="m285.114 80.739-32.284 73.239c-1.924 3.333-6.736 3.333-8.66 0l-42.284-73.239c-20.718-35.884 5.179-80.739 46.614-80.739 41.435 0 57.332 44.855 36.614 80.739z"/><path d="m201.885 416.262 42.284-73.239c1.924-3.333 6.736-3.333 8.66 0l32.284 73.239c20.719 35.883 4.822 80.738-36.613 80.738-41.435 0-67.332-44.855-46.615-80.738z"/><path d="m483.716 248.5c-11.688-54.881-55.135-51.86-55.14-51.859-4.167 1.195-8.297 2.925-12.314 5.245l-73.239 42.284c-3.333 1.924-3.333 6.736 0 8.66l73.239 42.284c4.017 2.319 8.148 4.05 12.314 5.245.018.001 66.827 3.018 55.14-51.859z"/></g><path d="m248.5 0c-5.11 0-9.982.685-14.561 1.948 32.551 8.981 50.217 47.332 32.054 78.791l-32.054 55.519 10.23 17.72c1.924 3.333 6.736 3.333 8.66 0l42.284-73.239c20.719-35.884-5.178-80.739-46.613-80.739z" fill="#2bd0d8"/><path d="m248.5 497c-5.11 0-9.982-.685-14.561-1.948 32.551-8.981 50.217-47.332 32.054-78.791l-32.054-55.519 10.23-17.719c1.924-3.333 6.736-3.333 8.66 0l42.284 73.239c20.719 35.883-5.178 80.738-46.613 80.738z" fill="#2bd0d8"/><path d="m80.738 201.886 73.239 42.284c3.333 1.924 3.333 6.736 0 8.66l-73.239 42.284c-35.883 20.718-80.738-5.179-80.738-46.614 0-41.435 44.855-67.332 80.738-46.614z" fill="#6bd9e7"/><path d="m428.575 196.641c21.846 6.209 39.303 26.01 39.303 51.859 0 25.849-17.458 45.65-39.303 51.859 33.052 9.475 68.425-15.063 68.425-51.859 0-36.796-35.373-61.334-68.425-51.859z" fill="#2bd0d8"/><path d="m339.695 205.719-58.672 15.721c-3.718.996-7.12-2.406-6.124-6.124l15.721-58.672c2.079-7.759 6.142-14.174 11.4-19.034 0 0 27.27-17.007 51.31 18.866 24.041 35.875-13.635 49.243-13.635 49.243z" fill="#03bed7"/><path d="m206.379 156.645 15.721 58.672c.996 3.718-2.406 7.12-6.124 6.124l-58.672-15.721c-29.794-7.983-39.773-45.226-17.962-67.037 21.811-21.811 59.054-11.832 67.037 17.962z" fill="#03bed7"/><path d="m206.379 340.355 15.721-58.672c.996-3.718-2.406-7.12-6.124-6.124l-58.672 15.721c-29.794 7.983-39.773 45.226-17.962 67.037 21.811 21.812 59.054 11.832 67.037-17.962z" fill="#03bed7"/><path d="m339.695 205.712-3.257.873c15.906-14.598 18.2-40.929 1.219-57.909-10.056-10.056-23.39-13.34-35.627-11.054 14.933-13.804 39.495-15.078 55.627 1.054 21.811 21.81 11.832 59.052-17.962 67.036z" fill="#07b2cd"/><path d="m339.695 291.281-58.672-15.721c-3.718-.996-7.12 2.406-6.124 6.124l15.721 58.672c2.079 7.759 6.142 14.174 11.4 19.034 0 0 27.27 17.007 51.31-18.866 24.041-35.875-13.635-49.243-13.635-49.243z" fill="#03bed7"/><path d="m339.695 291.289-3.257-.873c15.906 14.598 18.2 40.928 1.219 57.909-10.056 10.056-23.39 13.34-35.627 11.054 14.933 13.804 39.495 15.078 55.627-1.054 21.811-21.811 11.832-59.053-17.962-67.036z" fill="#07b2cd"/></g></svg>