<svg id="Layer_1" data-name="Layer 1" xmlns="http://www.w3.org/2000/svg" xmlns:xlink="http://www.w3.org/1999/xlink" viewBox="0 0 464.34 404.01"><defs><linearGradient id="linear-gradient" x1="226.75" y1="-1.06" x2="235.76" y2="287.26" gradientUnits="userSpaceOnUse"><stop offset="0" stop-color="#fff" stop-opacity="0"/><stop offset="0.84" stop-color="#fff" stop-opacity="0.84"/><stop offset="0.97" stop-color="#fff"/></linearGradient><linearGradient id="linear-gradient-2" x1="163.44" y1="147.4" x2="151.05" y2="124.87" xlink:href="#linear-gradient"/><linearGradient id="linear-gradient-3" x1="178.06" y1="142.77" x2="165.67" y2="120.24" xlink:href="#linear-gradient"/><linearGradient id="linear-gradient-4" x1="153.9" y1="156.05" x2="141.51" y2="133.53" xlink:href="#linear-gradient"/><linearGradient id="linear-gradient-5" x1="180.75" y1="207.07" x2="168.37" y2="184.55" gradientTransform="translate(170.64 -63.99) rotate(45)" xlink:href="#linear-gradient"/><linearGradient id="linear-gradient-6" x1="194.73" y1="199.38" x2="182.34" y2="176.86" gradientTransform="translate(211.1 -80.74) rotate(45)" xlink:href="#linear-gradient"/><linearGradient id="linear-gradient-7" x1="165.78" y1="215.31" x2="153.39" y2="192.78" gradientTransform="translate(348.4 40.04) rotate(90)" xlink:href="#linear-gradient"/><linearGradient id="linear-gradient-8" x1="209.71" y1="191.15" x2="197.32" y2="168.62" gradientTransform="translate(405.61 -17.18) rotate(90)" xlink:href="#linear-gradient"/><linearGradient id="linear-gradient-9" x1="211.82" y1="189.99" x2="199.43" y2="167.46" gradientTransform="translate(-63.57 194.51) rotate(-45)" xlink:href="#linear-gradient"/><linearGradient id="linear-gradient-10" x1="163.67" y1="216.47" x2="151.28" y2="193.94" gradientTransform="translate(-104.02 177.76) rotate(-45)" xlink:href="#linear-gradient"/><linearGradient id="linear-gradient-11" x1="89.92" y1="92.57" x2="89.92" y2="164.37" xlink:href="#linear-gradient"/><linearGradient id="linear-gradient-12" x1="196.25" y1="92.57" x2="196.25" y2="164.37" xlink:href="#linear-gradient"/><linearGradient id="linear-gradient-13" x1="302.58" y1="92.57" x2="302.58" y2="164.37" xlink:href="#linear-gradient"/><linearGradient id="linear-gradient-14" x1="408.9" y1="92.57" x2="408.9" y2="164.37" xlink:href="#linear-gradient"/><linearGradient id="linear-gradient-15" x1="415.16" y1="428.49" x2="420.51" y2="482.55" gradientUnits="userSpaceOnUse"><stop offset="0" stop-opacity="0"/><stop offset="0.88" stop-opacity="0.8"/><stop offset="0.97"/></linearGradient><linearGradient id="linear-gradient-16" x1="440.66" y1="507.56" x2="433.91" y2="297.52" xlink:href="#linear-gradient-15"/><linearGradient id="linear-gradient-17" x1="385.03" y1="252.76" x2="400.5" y2="252.76" gradientUnits="userSpaceOnUse"><stop offset="0" stop-color="#ecc4d7"/><stop offset="0.42" stop-color="#efd4d1"/><stop offset="1" stop-color="#f2eac9"/></linearGradient><linearGradient id="linear-gradient-18" x1="460.7" y1="360.92" x2="474.02" y2="360.92" xlink:href="#linear-gradient-17"/><linearGradient id="linear-gradient-19" x1="398.14" y1="440.93" x2="411.51" y2="440.93" xlink:href="#linear-gradient-17"/><linearGradient id="linear-gradient-20" x1="460.34" y1="441.76" x2="473.36" y2="441.76" xlink:href="#linear-gradient-17"/><linearGradient id="linear-gradient-21" x1="430.28" y1="258.64" x2="452.55" y2="258.64" xlink:href="#linear-gradient-17"/><linearGradient id="linear-gradient-22" x1="448.73" y1="258.71" x2="450.61" y2="259.02" xlink:href="#linear-gradient-17"/><linearGradient id="linear-gradient-23" x1="440.93" y1="264.54" x2="445.25" y2="299.78" xlink:href="#linear-gradient-17"/><linearGradient id="linear-gradient-24" x1="442.5" y1="263.1" x2="445.46" y2="302.19" xlink:href="#linear-gradient-15"/><linearGradient id="linear-gradient-25" x1="449.71" y1="284.21" x2="459.95" y2="419.6" xlink:href="#linear-gradient-15"/><linearGradient id="linear-gradient-26" x1="372.07" y1="315.37" x2="463.58" y2="226.11" xlink:href="#linear-gradient-15"/><linearGradient id="linear-gradient-27" x1="461.15" y1="253.71" x2="465.16" y2="382.1" xlink:href="#linear-gradient"/></defs><title>55. Weather</title><path d="M69,94S105.29,39.22,207.3,57.59,386.55,234,386.55,234l56.24,45S489.9,442.07,463.05,447s-335.79,0-335.79,0-73.94-31.57,0-122.48c0,0,27.16-57.17-66-52.65S69,94,69,94Z" transform="translate(-21.76 -53.82)" fill="#72edf2" opacity="0.19" style="isolation:isolate"/><path d="M284.54,82.93S221.3,55.68,184.22,101.86s17.39,170.42,31.27,185.45,29.63,36.42,62.3,31.91,64.57,3.44,59.31,41.7,57.4,82.87,57.4,82.87l76.37-2s-89.59-136.67-91.78-242.23S284.54,82.93,284.54,82.93Z" transform="translate(-21.76 -53.82)" fill="#72edf2" opacity="0.36" style="isolation:isolate"/><rect x="7.26" y="46.15" width="457.07" height="177.05" rx="16.6" fill="#72edf2" opacity="0.36" style="isolation:isolate"/><rect x="2.26" y="40.15" width="457.07" height="177.05" rx="16.6" fill="#72edf2"/><rect x="2.26" y="40.15" width="457.07" height="177.05" rx="16.6" fill="url(#linear-gradient)"/><circle cx="64.76" cy="138.12" r="16.43" fill="#fff"/><rect x="64.76" y="107.7" width="2.67" height="7.61" rx="1.33" fill="#fff"/><rect x="64.76" y="160.92" width="2.67" height="7.61" rx="1.33" fill="#fff"/><rect x="67.7" y="169.31" width="2.67" height="7.61" rx="1.33" transform="translate(-123.95 45.71) rotate(-45)" fill="#fff"/><rect x="105.34" y="206.94" width="2.67" height="7.61" rx="1.33" transform="translate(-139.54 83.34) rotate(-45)" fill="#fff"/><rect x="59.91" y="188.13" width="2.67" height="7.61" rx="1.33" transform="translate(-152.45 199.36) rotate(-90)" fill="#fff"/><rect x="113.13" y="188.13" width="2.67" height="7.61" rx="1.33" transform="translate(-99.23 252.58) rotate(-90)" fill="#fff"/><rect x="105.34" y="169.31" width="2.67" height="7.61" rx="1.33" transform="translate(131.89 -78.54) rotate(45)" fill="#fff"/><rect x="67.7" y="206.94" width="2.67" height="7.61" rx="1.33" transform="translate(147.48 -40.91) rotate(45)" fill="#fff"/><circle cx="159.59" cy="140.4" r="17.66" fill="url(#linear-gradient-2)"/><rect x="159.59" y="107.7" width="2.87" height="8.18" rx="1.43" fill="url(#linear-gradient-3)"/><rect x="159.59" y="164.92" width="2.87" height="8.18" rx="1.43" fill="url(#linear-gradient-4)"/><rect x="161.12" y="169.9" width="2.87" height="8.18" rx="1.43" transform="translate(-97.18 112.09) rotate(-45)" fill="url(#linear-gradient-5)"/><rect x="201.58" y="210.35" width="2.87" height="8.18" rx="1.43" transform="translate(-113.94 152.55) rotate(-45)" fill="url(#linear-gradient-6)"/><rect x="152.75" y="190.13" width="2.87" height="8.18" rx="1.43" transform="translate(-61.8 294.58) rotate(-90)" fill="url(#linear-gradient-7)"/><rect x="209.96" y="190.13" width="2.87" height="8.18" rx="1.43" transform="translate(-4.58 351.79) rotate(-90)" fill="url(#linear-gradient-8)"/><rect x="201.58" y="169.9" width="2.87" height="8.18" rx="1.43" transform="translate(160.73 -146.41) rotate(45)" fill="url(#linear-gradient-9)"/><rect x="161.12" y="210.35" width="2.87" height="8.18" rx="1.43" transform="translate(177.49 -105.95) rotate(45)" fill="url(#linear-gradient-10)"/><path d="M119.83,147.17H60a7.44,7.44,0,0,1-7.44-7.44v-3.44c0-4.11,3.33-7.44,5.81-7.44h59.81c5.74,0,9.07,3.33,9.07,7.44v3.44A7.44,7.44,0,0,1,119.83,147.17Z" transform="translate(-21.76 -53.82)" fill="url(#linear-gradient-11)"/><path d="M226.15,147.17H166.34a7.44,7.44,0,0,1-7.44-7.44v-3.44c0-4.11,3.33-7.44,5.81-7.44h59.81c5.74,0,9.07,3.33,9.07,7.44v3.44A7.44,7.44,0,0,1,226.15,147.17Z" transform="translate(-21.76 -53.82)" fill="url(#linear-gradient-12)"/><path d="M332.48,147.17H272.67a7.44,7.44,0,0,1-7.44-7.44v-3.44c0-4.11,3.33-7.44,5.81-7.44h59.81c5.74,0,9.07,3.33,9.07,7.44v3.44A7.44,7.44,0,0,1,332.48,147.17Z" transform="translate(-21.76 -53.82)" fill="url(#linear-gradient-13)"/><path d="M438.81,147.17H379a7.44,7.44,0,0,1-7.44-7.44v-3.44c0-4.11,3.33-7.44,5.8-7.44h59.82c5.74,0,9.07,3.33,9.07,7.44v3.44A7.44,7.44,0,0,1,438.81,147.17Z" transform="translate(-21.76 -53.82)" fill="url(#linear-gradient-14)"/><path d="M233.59,209a9.42,9.42,0,0,1-9.44,9.44H168.34a9.44,9.44,0,1,1,0-18.87h12.53a9.07,9.07,0,0,1-.09-1.28,9.42,9.42,0,0,1,9.43-9.44h0v-1.72a9.33,9.33,0,0,1,9.33-9.33h5.75a8,8,0,0,1,8,8.05v3h2.1a9.45,9.45,0,0,1,9.35,10.75A9.42,9.42,0,0,1,233.59,209Z" transform="translate(-21.76 -53.82)" fill="#fff"/><path d="M337.1,209a9.42,9.42,0,0,1-9.44,9.44H271.85a9.44,9.44,0,1,1,0-18.87h12.53a9.07,9.07,0,0,1-.09-1.28,9.42,9.42,0,0,1,9.43-9.44h1.69v-4.23a10.44,10.44,0,0,1,20.88,0v4.23H319a9.38,9.38,0,0,1,9.34,10.75A9.42,9.42,0,0,1,337.1,209Z" transform="translate(-21.76 -53.82)" fill="#fff"/><path d="M444.34,209a9.42,9.42,0,0,1-9.44,9.44H379.09a9.44,9.44,0,1,1,0-18.87h12.52a9.07,9.07,0,0,1-.09-1.28,9.42,9.42,0,0,1,9.44-9.44h1.68v-4.23a10.44,10.44,0,0,1,20.88,0v4.23h2.68a9.44,9.44,0,0,1,9.44,9.44,8.17,8.17,0,0,1-.1,1.31A9.42,9.42,0,0,1,444.34,209Z" transform="translate(-21.76 -53.82)" fill="#fff"/><rect x="389.34" y="221.77" width="2.8" height="6.72" rx="1.4" transform="translate(143.15 -219.03) rotate(30)" fill="#fff"/><rect x="399.5" y="221.77" width="2.8" height="6.72" rx="1.4" transform="translate(144.51 -224.1) rotate(30)" fill="#fff"/><rect x="409.65" y="221.77" width="2.8" height="6.72" rx="1.4" transform="translate(145.87 -229.18) rotate(30)" fill="#fff"/><rect x="419.81" y="221.77" width="2.8" height="6.72" rx="1.4" transform="translate(147.23 -234.26) rotate(30)" fill="#fff"/><rect x="385.38" y="233.02" width="2.8" height="6.72" rx="1.4" transform="translate(148.25 -215.54) rotate(30)" fill="#fff"/><rect x="395.54" y="233.02" width="2.8" height="6.72" rx="1.4" transform="translate(149.61 -220.62) rotate(30)" fill="#fff"/><rect x="405.69" y="233.02" width="2.8" height="6.72" rx="1.4" transform="translate(150.97 -225.7) rotate(30)" fill="#fff"/><rect x="415.85" y="233.02" width="2.8" height="6.72" rx="1.4" transform="translate(152.33 -230.77) rotate(30)" fill="#fff"/><path d="M427.89,245.38c-.32,4.59,1.11,7.59,3,11.77-.67-4.24,1.85-8.27,2.8-12.46.28-1.21,2.77-4.62,2.31-5.78C435,236.22,428.41,238,427.89,245.38Z" transform="translate(-21.76 -53.82)" fill="#25233a"/><path d="M357.22,454.91c.39,2.62,3.94,3.08,6.58,2.87L436.2,452a124.27,124.27,0,0,1,15.31-.6c3.36.14,6.72.55,10.09.36A28.48,28.48,0,0,0,475,447.5c1.46-.91,3-2.81,1.86-4.13a2.87,2.87,0,0,0-1.23-.74c-7-2.62-14.65-.16-22.06.54A43.9,43.9,0,0,1,434.81,441c-5.75-2.1-10.08-1.37-16.27-.51a340.5,340.5,0,0,0-39.27,7.82Q368.14,451.25,357.22,454.91Z" transform="translate(-21.76 -53.82)" fill="url(#linear-gradient-15)"/><path d="M455,449.81s-.71.46,0,1.26,3.31,2.36,9.74,0,9.2-4.14,9.67-4.89-.4-2-.4-2Z" transform="translate(-21.76 -53.82)" fill="#25233a"/><path d="M403.52,421.69c-1.9-13.58,4.28-49.52,12.1-69.48,1.18-3,3.6-12,6.37-13.74,1.65-1,7.49.29,9.39-.05,7-1.23,13.34.84,20.33-.39,1.93-.34,4.24-.55,5.54.91a5.79,5.79,0,0,1,1.11,3q7,43.42,14.09,86.86c.32,2,.63,4-.08,5.9s-2.81,3.35-4.67,2.65c-1.56-.58-2.28-2.32-2.83-3.89-6.46-18.38-14.37-35.69-19.05-54.61-.95-3.8-2.51-9.54-6.42-9.38-2.71.11-5.18,2.09-6.93,4.16-13.25,15.68-20.27,28.39-20.29,59.16,0,2.57-2.36,5.83-4.66,4.68-1.07-.53-1.46-1.83-1.73-3a123.71,123.71,0,0,1-2.27-12.82" transform="translate(-21.76 -53.82)" fill="#72edf2"/><path d="M403.52,421.69c-1.9-13.58,4.28-49.52,12.1-69.48,1.18-3,3.6-12,6.37-13.74,1.65-1,7.49.29,9.39-.05,7-1.23,13.34.84,20.33-.39,1.93-.34,4.24-.55,5.54.91a5.79,5.79,0,0,1,1.11,3q7,43.42,14.09,86.86c.32,2,.63,4-.08,5.9s-2.81,3.35-4.67,2.65c-1.56-.58-2.28-2.32-2.83-3.89-6.46-18.38-14.37-35.69-19.05-54.61-.95-3.8-2.51-9.54-6.42-9.38-2.71.11-5.18,2.09-6.93,4.16-13.25,15.68-20.27,28.39-20.29,59.16,0,2.57-2.36,5.83-4.66,4.68-1.07-.53-1.46-1.83-1.73-3a123.71,123.71,0,0,1-2.27-12.82" transform="translate(-21.76 -53.82)" fill="url(#linear-gradient-16)"/><path d="M474.24,351.55a3.51,3.51,0,0,1-.4,1.26,1.31,1.31,0,0,1-.27.31,2.37,2.37,0,0,1-1.32.44c-.91.12-2.64.38-4.38.61a3.11,3.11,0,0,1-3.44-3.83c3.46-14,3.79-29.56-3.56-41.66-1.35,20-2.41,26.84-2.54,33.19a3.39,3.39,0,0,1-.37,1.9l0,.06a3.17,3.17,0,0,1-1.36.89,29.76,29.76,0,0,1-11.43,2.07A85.19,85.19,0,0,1,429.89,345c-2.83-.51-5.84-1.11-7.9-3.12-3.07-3-2.93-7.86-2.71-12.13.5-10.05,3.1-35.39,2.81-35.05-3.45,4-12.79,11.42-17.37,11.87a6,6,0,0,1-4.32-.86,4.28,4.28,0,0,1-.79-.8c-1.27-1.65-3-6.87-3.46-8.9l-5.61-24.13a6.69,6.69,0,0,1-.21-1.66c0-.14,0-.28,0-.41.38-4.34,5.29-4.78,9-4.53q2.7,13.06,6.19,25.95c3-3.07,12.72-15.73,22.7-18.5a120.34,120.34,0,0,1,21.2-3.29,6.93,6.93,0,0,1,.89.05c6.81.79,19.57,11.4,24.31,32.65C478.3,318.41,477.2,335.16,474.24,351.55Z" transform="translate(-21.76 -53.82)" fill="#72edf2"/><path d="M387.45,259.68a14.43,14.43,0,0,1-1.14-2.61,24.58,24.58,0,0,1-1.21-9.56,7,7,0,0,1,1-3.51c.13-.19.28-.37.41-.57s.29-.64.45-1a7.08,7.08,0,0,1,2.17-2.19,8.8,8.8,0,0,1,1.15-.76A8.33,8.33,0,0,1,392,239a1.07,1.07,0,0,1,.56,0,.9.9,0,0,1,.4.3,8,8,0,0,1,1.41,3.1,72.2,72.2,0,0,1,2.18,8.93c.07.48.39,1.13.84.94a.79.79,0,0,0,.34-.38l.66-1.16a1.59,1.59,0,0,1,.84-.85c.6-.16,1.18.46,1.23,1.08a3.56,3.56,0,0,1-.54,1.77,23.07,23.07,0,0,0-2.38,10.89,2.6,2.6,0,0,1-.14,1.18c-.48,1-2.17,1.19-3.12,1.5s-1.94.73-2.83,0a8.81,8.81,0,0,1-1.59-2.76C389.2,262.11,388.2,261,387.45,259.68Z" transform="translate(-21.76 -53.82)" fill="url(#linear-gradient-17)"/><path d="M460.7,361.6a4.8,4.8,0,0,0,4.49-1.24A14.18,14.18,0,0,1,464,367c-.16.35-.32.78-.09,1.09a1,1,0,0,0,.34.25,4.25,4.25,0,0,0,3.25,0,12.14,12.14,0,0,0,2.88-1.65,9.15,9.15,0,0,0,2.77-2.55,8.11,8.11,0,0,0,.75-5,35.13,35.13,0,0,0-.84-5,1.41,1.41,0,0,0-.25-.59c-.46-.57-1.36-.2-2,.1-2.22,1-4.48-.72-5.95,1.4a36.2,36.2,0,0,1-2.16,3.27C461.87,359.26,460.76,360.2,460.7,361.6Z" transform="translate(-21.76 -53.82)" fill="url(#linear-gradient-18)"/><path d="M403.65,440a36.06,36.06,0,0,1-4.19,2.52c-.68.42-1.42,1-1.3,1.84s1.19,1.24,2.07,1.36a45.9,45.9,0,0,0,5,.3,10.93,10.93,0,0,0,4.34-.49,3,3,0,0,0,1.38-1,4,4,0,0,0,.56-2.23,34.35,34.35,0,0,0-.29-5.82.49.49,0,0,0-.16-.37.5.5,0,0,0-.3-.08c-1.21-.05-3.64-.66-4.62.22-.45.41-.53,1.34-.82,1.86A9,9,0,0,1,403.65,440Z" transform="translate(-21.76 -53.82)" fill="url(#linear-gradient-19)"/><path d="M465.16,441c-1.2,1-2.63,1.76-3.85,2.76a2.23,2.23,0,0,0-1,1.48,1.62,1.62,0,0,0,1,1.41,4.39,4.39,0,0,0,1.76.35,27.92,27.92,0,0,0,7.18-.57,4,4,0,0,0,2.86-1.67,4.33,4.33,0,0,0,.11-2.67l-.6-3.4a2.94,2.94,0,0,0-.83-1.89c-.85-.66-3.44-.39-4.21.37-.44.42-.5,1.38-.79,1.92A6.69,6.69,0,0,1,465.16,441Z" transform="translate(-21.76 -53.82)" fill="url(#linear-gradient-20)"/><path d="M452,258.79c-1.36,4.73-.65,2.28-2.21,8.33-1.5,5.87-2.38,8.44-3.9,10-3.09,3.21-5,3.71-6.25,3.09-1.82-.89-2-4.23-1.92-4.66.35-1.83,2.1-5.19,1.5-6.94-.11-.32-.41-.35-.83-.31-1.15.09-3.22.68-5-2.59-3.15-5.72-3.16-12.11-3-18.46.15-5.63,3.69-9.64,9.11-10.35a10.61,10.61,0,0,1,10.39,5.21C452.25,246.33,453.31,254.07,452,258.79Z" transform="translate(-21.76 -53.82)" fill="url(#linear-gradient-21)"/><path d="M436.17,233.83a6.12,6.12,0,0,0-3.29,2.81,3.73,3.73,0,0,0,.46,4.13c1.1,1.14,2.84,1.24,4.4,1.47a13.51,13.51,0,0,1,5.68,2.12,8.62,8.62,0,0,1,3.49,4.85c.77,3.09-.54,6.46.44,9.49a15,15,0,0,0,1.43-1.9,1.78,1.78,0,0,1,2.07-.72c1.7,1.88-.15,4.57-2.1,5.54a1,1,0,0,0-.51.4c-.12.26,0,.55.15.81.93,2.08-.33,4.85,1.1,6.62l2.32-3.95a34.55,34.55,0,0,0,3.06-6.11,11.69,11.69,0,0,0,.48-6.74l.76.17a5.78,5.78,0,0,0-.57-2.38,2.32,2.32,0,0,0,2,.57,8.59,8.59,0,0,1-1.39-1.9,2.24,2.24,0,0,0,1.66.42A7.42,7.42,0,0,1,456,246c-1.07-3.61-2.57-7.21-5.2-9.89C446.84,232.06,441.22,231.81,436.17,233.83Z" transform="translate(-21.76 -53.82)" fill="#25233a"/><path d="M448.87,258.78A3.05,3.05,0,0,0,449,258a1.22,1.22,0,0,1,.32-.71.66.66,0,0,1,.74-.15.91.91,0,0,1,.35.81,2.8,2.8,0,0,1-1,2.22,1,1,0,0,1-.82.26.75.75,0,0,1-.5-.55C447.9,259.05,448.6,259.34,448.87,258.78Z" transform="translate(-21.76 -53.82)" fill="url(#linear-gradient-22)"/><path d="M444.24,271.48a42.74,42.74,0,0,0-4.65,8.74c-1.82-.89-2-4.23-1.92-4.66.35-1.83,2.1-5.19,1.5-6.94-.11-.32-.41-.35-.83-.31h0s4.63-1.05,5.66-3.91S447.38,267,444.24,271.48Z" transform="translate(-21.76 -53.82)" fill="url(#linear-gradient-23)"/><path d="M448.85,268s-2.31,9-6.06,11-4.51-3.05-4.51-3.05l1-5.74-1,.55s-1.64,3.92-1.22,6.17,2.11,6.22,6.48,3.35,5.95-10.77,5.95-10.77Z" transform="translate(-21.76 -53.82)" fill="#72edf2"/><path d="M448.85,268s-2.31,9-6.06,11-4.51-3.05-4.51-3.05l1-5.74-1,.55s-1.64,3.92-1.22,6.17,2.11,6.22,6.48,3.35,5.95-10.77,5.95-10.77Z" transform="translate(-21.76 -53.82)" fill="url(#linear-gradient-24)"/><path d="M460.87,308.68l-2.54,33.19s-.11.55-.42,2a3.17,3.17,0,0,1-1.36.89,29.76,29.76,0,0,1-11.43,2.07c11.2-3.57,10.38-44.48,10.38-44.48Z" transform="translate(-21.76 -53.82)" fill="url(#linear-gradient-25)"/><path d="M394.5,443.79s7.32-3.73,9.15-3.77c0,0,0,.94,3.38.91s4.72-.91,4.72-.91a27.46,27.46,0,0,1,.56,4.33,15.06,15.06,0,0,1-.8,2.18l-19.13,2.84a1.45,1.45,0,0,1-1.66-1.39C390.68,446.7,391.3,444.94,394.5,443.79Z" transform="translate(-21.76 -53.82)" fill="#25233a"/><path d="M464.47,440.93a10.43,10.43,0,0,0,6.4.83l2.49-1.74s.61,3.35.61,4.12a10.37,10.37,0,0,1-.61,2.42s-12.17,6.46-16.71,4.55C449.62,448.15,464.47,440.93,464.47,440.93Z" transform="translate(-21.76 -53.82)" fill="#25233a"/><polygon points="369.52 395.67 390.56 392.23 390.83 393.95 369.52 396.94 369.52 395.67" fill="#25233a"/><path d="M422.09,286.73v8c-3.45,4-12.79,11.42-17.37,11.87a6,6,0,0,1-4.32-.86,4.28,4.28,0,0,1-.79-.8c-1.27-1.65-3-6.87-3.46-8.9l-5.61-24.13a6.69,6.69,0,0,1-.21-1.66c0-.14,0-.28,0-.41l1.33-1.84s9.2,30.95,12.39,32.26S422.09,286.73,422.09,286.73Z" transform="translate(-21.76 -53.82)" fill="url(#linear-gradient-26)"/><path d="M474.24,351.55a3.51,3.51,0,0,1-.4,1.26l-3,.8s1.39-34.41-2-51.3S448.07,273,448.07,273l2.3-3.48c6.81.79,19.57,11.4,24.31,32.65C478.3,318.41,477.2,335.16,474.24,351.55Z" transform="translate(-21.76 -53.82)" fill="url(#linear-gradient-27)"/></svg>